<svg width="180" height="80" viewBox="0 -2 233 84.30581215449742" xmlns="http://www.w3.org/2000/svg" class="css-1j8o68f"><defs id="SvgjsDefs8559"></defs><g id="SvgjsG8560" featurekey="HdFLvg-0" transform="matrix(0.8035714285714286,0,0,0.8035714285714286,-24.107142857142858,-41.19419765472412)" fill="#ff5a3b"><path xmlns="http://www.w3.org/2000/svg" d="M169,86.1l-68-37.1c-0.6-0.3-1.3-0.3-1.9,0L31,86.1c-0.6,0.4-1,1-1,1.8v7.9c0,1.1,0.9,2,2,2h7.8v51.4c0,1.1,0.9,2,2,2H100    c1.1,0,2-0.9,2-2v-13.6v-0.5c8.3-1,14.8-8.1,14.8-16.7c0-12-5.2-23.2-14.4-31l-1.1-1c-0.7-0.6-1.8-0.6-2.6,0l-1.1,1    c-9.1,7.7-14.4,19-14.4,31c0,4.3,1.6,8.4,4.6,11.6c0.8,0.8,2,0.8,2.8,0.1c0.8-0.8,0.8-2,0.1-2.8c-2.3-2.4-3.5-5.5-3.5-8.8    c0-10.7,4.7-20.8,12.8-27.8c8.1,7,12.8,17.1,12.8,27.8c0,6.4-4.7,11.7-10.8,12.6v-2.4V108c0-1.1-0.9-2-2-2s-2,0.9-2,2v20.6v7v11.6    H43.8V95.7c0-1.1-0.9-2-2-2H34v-4.7l66-36l66,36v4.7h-7.8c-1.1,0-2,0.9-2,2v51.4H116c-1.1,0-2,0.9-2,2s0.9,2,2,2h42.2    c1.1,0,2-0.9,2-2V97.7h7.8c1.1,0,2-0.9,2-2v-7.9C170,87.1,169.6,86.5,169,86.1z"></path></g><g id="SvgjsG8561" featurekey="VomJeJ-0" transform="matrix(3.5310734843784646,0,0,3.5310734843784646,132.99999242313828,-19.446322413582696)" fill="#000000"><path d="M24.58 22.98 c0.42 0.1 1.44 -0.78 1.46 -0.78 c-0.08 0.12 -0.28 0.32 -0.32 0.36 c-0.3 0.3 -0.82 0.66 -1.14 0.76 c-0.22 0.06 -0.46 0.1 -0.7 0.06 c-0.14 -0.02 -0.28 -0.06 -0.42 -0.12 c-0.2 -0.08 -0.4 -0.18 -0.58 -0.34 c-0.22 -0.16 -0.54 -0.6 -0.6 -0.72 c-0.16 -0.22 -0.3 -0.46 -0.42 -0.7 c-0.22 -0.4 -0.4 -0.82 -0.6 -1.22 c-0.52 -1.1 -1.02 -2.2 -1.5 -3.3 c-0.24 -0.52 -0.46 -1.04 -0.68 -1.56 c-0.48 0.2 -0.94 0.42 -1.4 0.62 c-1.14 0.52 -2.28 1.04 -3.48 1.42 c-0.62 0.2 -1.22 0.36 -1.86 0.48 c-0.48 0.1 -0.96 0.16 -1.44 0.22 c-0.22 0.44 -0.36 0.72 -0.38 0.78 l-1.3 2.84 c0.18 0.02 0.38 0.04 0.58 0.08 c0.22 0.04 0.44 0.08 0.66 0.16 c0.02 0.02 0 0.02 0.02 0.18 l-3.36 0 l0 -0.26 c0.02 -0.04 1.4 -0.26 1.46 -0.3 c0.1 -0.06 0.14 -0.2 1.6 -3.42 c-0.54 0.02 -1.08 0.04 -1.62 0.02 c-0.64 -0.02 -1.26 -0.08 -1.9 -0.2 c-0.62 -0.1 -1.24 -0.26 -1.84 -0.48 c-0.22 -0.08 -0.44 -0.16 -0.64 -0.26 c-0.44 0.94 -0.74 1.56 -0.78 1.64 l-1.3 2.84 c0.2 0.02 0.38 0.04 0.58 0.08 c0.18 0.02 0.54 0.12 0.68 0.18 l0 0.16 l-3.36 0 l0 -0.26 c0.04 -0.04 1.4 -0.26 1.46 -0.3 c0.14 -0.1 0 0.1 2.02 -4.34 c0.04 -0.08 0.08 -0.18 0.14 -0.26 c-0.18 -0.1 -0.36 -0.18 -0.52 -0.28 c-0.54 -0.34 -1.04 -0.72 -1.5 -1.16 c-0.44 -0.44 -0.84 -0.94 -1.12 -1.5 c0.18 0.26 0.38 0.5 0.6 0.72 c0.2 0.22 0.44 0.42 0.68 0.62 c0.46 0.38 0.98 0.7 1.52 0.98 c0.18 0.08 0.34 0.16 0.5 0.22 c0.1 -0.22 0.18 -0.38 4.56 -10 l0.72 0 c0.08 0.14 0.14 0.3 0.2 0.46 c0.2 0.4 0.38 0.82 0.56 1.24 c0.28 0.6 0.54 1.22 0.82 1.82 c0.32 0.74 0.66 1.48 0.98 2.22 l0.6 1.36 c0.02 -0.02 0.02 -0.04 0.04 -0.06 c0.02 -0.06 2.98 -6.56 3.2 -7.04 l0.72 0 c0.06 0.14 0.14 0.3 0.2 0.46 c0.18 0.4 0.36 0.82 0.56 1.24 l0.8 1.82 c0.34 0.74 0.66 1.48 1 2.22 c0.3 0.68 0.6 1.38 0.92 2.06 l1.22 -0.42 c1.22 -0.36 2.46 -0.6 3.7 -0.74 c1.24 -0.12 2.5 -0.14 3.74 -0.06 c-1.24 0.1 -2.48 0.22 -3.68 0.44 c-0.16 0.04 -0.32 0.06 -0.46 0.1 l-0.46 0.08 c-0.3 0.08 -0.6 0.14 -0.88 0.24 c-0.3 0.06 -0.6 0.16 -0.9 0.24 c-0.28 0.1 -0.58 0.18 -0.86 0.3 c-0.3 0.1 -0.58 0.2 -0.86 0.32 l-0.3 0.12 c0.32 0.7 0.64 1.4 0.94 2.1 c0.28 0.62 1.56 3.46 2 4.24 c0.12 0.18 0.22 0.38 0.36 0.56 c0.1 0.14 0.22 0.28 0.34 0.4 c0.28 0.28 0.64 0.54 1.02 0.62 z M10.6 17.3 l1.1 -2.38 c0 -0.02 0 -0.04 0.02 -0.06 l-0.3 -0.7 c-0.06 -0.16 -1.3 -2.92 -1.72 -3.88 c-0.28 -0.64 -0.58 -1.28 -0.86 -1.94 l-0.32 -0.66 s-2.66 5.94 -4.14 9.2 c0.76 0.28 1.56 0.46 2.38 0.56 c0.6 0.08 1.2 0.1 1.82 0.12 c0.6 -0.02 1.22 -0.04 1.82 -0.1 l0.14 -0.02 z M17.38 15.36 l1.42 -0.6 l-0.06 -0.12 c-0.06 -0.16 -0.14 -0.32 -0.2 -0.48 c-0.08 -0.16 -1.3 -2.92 -1.72 -3.88 c-0.3 -0.64 -0.58 -1.28 -0.86 -1.94 l-0.32 -0.66 s-2.94 6.56 -4.38 9.66 c0.32 -0.04 0.62 -0.1 0.94 -0.16 c0.58 -0.12 1.18 -0.28 1.76 -0.46 c1.16 -0.36 2.28 -0.86 3.42 -1.36 z"></path></g><g id="SvgjsG8562" featurekey="sloganFeature-0" transform="matrix(0.3937088129908729,0,0,0.3937088129908729,132.70078139974913,70.62987314103934)" fill="#000000"><path d="M6.7 20.24 c-3.84 0 -5.94 -2.28 -5.94 -5.68 l0 -8.26 l3.1 0 l0 7.84 c0 2.08 1.02 3.22 2.82 3.22 c1.78 0 2.78 -1.14 2.78 -3.22 l0 -7.84 l3.1 0 l0 8.26 c0 3.4 -2.08 5.68 -5.86 5.68 z M25.13 20 l-3.7 -8.18 l0 8.18 l-2.98 0 l0 -13.7 l3.72 0 l4.02 9.06 l4.02 -9.06 l3.72 0 l0 13.7 l-3.04 0 l0 -8.22 l-3.72 8.22 l-2.04 0 z M50.120000000000005 8.9 l-6.64 8.32 l6.76 0 l0 2.78 l-10.64 0 l0 -2.56 l6.62 -8.36 l-6.6 0 l0 -2.78 l10.5 0 l0 2.6 z M61.81 20.24 c-3.84 0 -5.94 -2.28 -5.94 -5.68 l0 -8.26 l3.1 0 l0 7.84 c0 2.08 1.02 3.22 2.82 3.22 c1.78 0 2.78 -1.14 2.78 -3.22 l0 -7.84 l3.1 0 l0 8.26 c0 3.4 -2.08 5.68 -5.86 5.68 z M87.56 13.120000000000001 c0 4.1 -2.84 7.16 -6.94 7.16 c-4.34 0 -7.38 -3.18 -7.38 -7.14 c0 -3.9 2.94 -7.12 7.38 -7.12 c2.56 0 4.54 1.04 5.78 2.82 l-2.28 1.94 c-0.92 -1.16 -2.06 -1.86 -3.5 -1.86 c-2.38 0 -4.22 1.76 -4.22 4.3 c0 2.4 1.72 4.18 4.14 4.18 c1.84 0 3.04 -0.92 3.56 -2.38 l-3.64 0 l0 -2.7 l7.1 0 l0 0.8 z M105.62 9.84 c0 0.62 0.36 1.2 0.84 1.74 c1.1 -0.44 1.96 -0.94 1.96 -1.94 c0 -0.76 -0.54 -1.28 -1.32 -1.28 s-1.48 0.52 -1.48 1.48 z M108.42 17.32 l-2.9 -2.98 c-0.8 0.42 -1.36 0.92 -1.36 1.76 c0 1.08 0.96 1.68 2.28 1.68 c0.76 0 1.4 -0.16 1.98 -0.46 z M111.06 20 l-0.78 -0.8 c-1.06 0.64 -2.38 1.02 -3.92 1.02 c-3.02 0 -5.12 -1.42 -5.12 -4.06 c0 -1.88 1.1 -2.94 2.74 -3.66 c-0.56 -0.72 -1.06 -1.6 -1.06 -2.62 c0 -2.26 1.68 -3.84 4.18 -3.84 c2.34 0 3.96 1.46 3.96 3.42 c0 2.12 -1.42 3.1 -3.06 3.8 l2.32 2.3 c0.8 -1.2 1.26 -2.78 1.34 -4.18 l2.74 0 c-0.16 2.04 -0.8 4.34 -2.12 6.08 l2.56 2.54 l-3.78 0 z M128.54 20 l0 -13.7 l3.1 0 l0 10.86 l6.36 0 l0 2.84 l-9.46 0 z M150.65 20.28 c-4 0 -7.26 -3.06 -7.26 -7.12 c0 -4.08 3.26 -7.14 7.26 -7.14 c4.1 0 7.26 3.06 7.26 7.12 c0 4.08 -3.16 7.14 -7.26 7.14 z M150.65 17.4 c2.32 0 4.1 -1.84 4.1 -4.26 c0 -2.38 -1.78 -4.24 -4.1 -4.24 s-4.1 1.86 -4.1 4.26 s1.78 4.24 4.1 4.24 z M177.56 13.120000000000001 c0 4.1 -2.84 7.16 -6.94 7.16 c-4.34 0 -7.38 -3.18 -7.38 -7.14 c0 -3.9 2.94 -7.12 7.38 -7.12 c2.56 0 4.54 1.04 5.78 2.82 l-2.28 1.94 c-0.92 -1.16 -2.06 -1.86 -3.5 -1.86 c-2.38 0 -4.22 1.76 -4.22 4.3 c0 2.4 1.72 4.18 4.14 4.18 c1.84 0 3.04 -0.92 3.56 -2.38 l-3.64 0 l0 -2.7 l7.1 0 l0 0.8 z M186.26999999999998 20 l-3.1 0 l0 -13.7 l3.1 0 l0 13.7 z M197.2 20.26 c-3.46 0 -5.36 -1.72 -5.54 -4.54 l3.1 0 c0.06 1.04 0.66 2.08 2.52 2.08 c1.56 0 2.36 -0.62 2.36 -1.48 c0 -1.06 -1.34 -1.34 -2.9 -1.68 c-2.18 -0.52 -4.84 -1.16 -4.84 -4.42 c0 -2.4 1.86 -4.18 5.14 -4.18 c3.34 0 5.18 1.82 5.38 4.5 l-3.12 0 c-0.06 -1.1 -0.66 -1.98 -2.34 -1.98 c-1.24 0 -2.06 0.5 -2.06 1.4 c0 1.16 1.36 1.48 2.92 1.84 c2.24 0.5 4.92 1.06 4.92 4.14 c0 2.5 -1.96 4.32 -5.54 4.32 z M214.91 20 l-3.1 0 l0 -10.86 l-4.08 0 l0 -2.84 l11.26 0 l0 2.84 l-4.08 0 l0 10.86 z M227.52 20 l-3.1 0 l0 -13.7 l3.1 0 l0 13.7 z M236.57000000000002 12.68 l4.88 -6.38 l3.62 0 l-5.44 6.84 l5.6 6.86 l-4.02 0 l-4.64 -5.84 l0 5.84 l-3.1 0 l0 -13.7 l3.1 0 l0 6.38 z"></path></g></svg>